<svg width="25" height="24" viewBox="0 0 25 24" fill="none" xmlns="http://www.w3.org/2000/svg">
<path d="M12.7179 23.258L12.7069 23.26L12.6359 23.295L12.6159 23.299L12.6019 23.295L12.5309 23.26C12.5203 23.2567 12.5123 23.2583 12.5069 23.265L12.5029 23.275L12.4859 23.703L12.4909 23.723L12.5009 23.736L12.6049 23.81L12.6199 23.814L12.6319 23.81L12.7359 23.736L12.7479 23.72L12.7519 23.703L12.7349 23.276C12.7323 23.2653 12.7266 23.2593 12.7179 23.258ZM12.9829 23.145L12.9699 23.147L12.7849 23.24L12.7749 23.25L12.7719 23.261L12.7899 23.691L12.7949 23.703L12.8029 23.71L13.0039 23.803C13.0166 23.8063 13.0263 23.8037 13.0329 23.795L13.0369 23.781L13.0029 23.167C12.9996 23.155 12.9929 23.1477 12.9829 23.145ZM12.2679 23.147C12.2635 23.1443 12.2583 23.1435 12.2532 23.1446C12.2482 23.1457 12.2438 23.1487 12.2409 23.153L12.2349 23.167L12.2009 23.781C12.2016 23.793 12.2073 23.801 12.2179 23.805L12.2329 23.803L12.4339 23.71L12.4439 23.702L12.4479 23.691L12.4649 23.261L12.4619 23.249L12.4519 23.239L12.2679 23.147Z" fill="white"/>
<path d="M11.045 2.86801C11.155 2.67917 11.3127 2.52248 11.5022 2.41358C11.6917 2.30468 11.9064 2.24738 12.125 2.24738C12.3435 2.24738 12.5583 2.30468 12.7478 2.41358C12.9373 2.52248 13.0949 2.67917 13.205 2.86801L16 7.66601L21.428 8.84201C21.6415 8.88841 21.8391 8.98996 22.0011 9.13654C22.1632 9.28313 22.284 9.46962 22.3514 9.67743C22.4189 9.88525 22.4308 10.1071 22.3858 10.3209C22.3408 10.5347 22.2405 10.733 22.095 10.896L18.395 15.037L18.955 20.562C18.9771 20.7796 18.9417 20.9991 18.8524 21.1987C18.7631 21.3983 18.623 21.571 18.4461 21.6996C18.2692 21.8281 18.0617 21.908 17.8442 21.9312C17.6268 21.9545 17.4071 21.9203 17.207 21.832L12.125 19.592L7.04299 21.832C6.8429 21.9203 6.62318 21.9545 6.40574 21.9312C6.1883 21.908 5.98077 21.8281 5.80386 21.6996C5.62695 21.571 5.48685 21.3983 5.39755 21.1987C5.30826 20.9991 5.27289 20.7796 5.29499 20.562L5.85499 15.037L2.15499 10.897C2.00921 10.734 1.90874 10.5357 1.8636 10.3217C1.81846 10.1078 1.83023 9.88574 1.89773 9.67777C1.96523 9.46979 2.08611 9.28316 2.24829 9.13651C2.41047 8.98986 2.60829 8.88831 2.82199 8.84201L8.24999 7.66601L11.045 2.86801Z" fill="white"/>
</svg>
