<svg width="25" height="24" viewBox="0 0 25 24" fill="none" xmlns="http://www.w3.org/2000/svg">
<path d="M13.582 2.29303L22.582 11.293C23.212 11.923 22.766 13 21.875 13H20.875V19C20.875 19.7957 20.5589 20.5587 19.9963 21.1214C19.4337 21.684 18.6706 22 17.875 22H16.875V15C16.875 14.2348 16.5827 13.4985 16.0577 12.9418C15.5327 12.385 14.8149 12.0499 14.051 12.005L13.875 12H11.875C11.0793 12 10.3163 12.3161 9.75366 12.8787C9.19105 13.4413 8.87498 14.2044 8.87498 15V22H7.87498C7.07933 22 6.31627 21.684 5.75366 21.1214C5.19105 20.5587 4.87498 19.7957 4.87498 19V13H3.87498C2.98498 13 2.53798 11.923 3.16798 11.293L12.168 2.29303C12.3555 2.10556 12.6098 2.00024 12.875 2.00024C13.1401 2.00024 13.3945 2.10556 13.582 2.29303ZM13.875 14C14.1402 14 14.3945 14.1054 14.5821 14.2929C14.7696 14.4805 14.875 14.7348 14.875 15V22H10.875V15C10.875 14.7551 10.9649 14.5187 11.1277 14.3357C11.2905 14.1526 11.5147 14.0357 11.758 14.007L11.875 14H13.875Z" fill="white"/>
</svg>
