<svg width="25" height="24" viewBox="0 0 25 24" fill="none" xmlns="http://www.w3.org/2000/svg">
<path fill-rule="evenodd" clip-rule="evenodd" d="M12.625 5.25C10.3044 5.25 8.07876 6.17187 6.43782 7.81282C4.79687 9.45376 3.875 11.6794 3.875 14C3.875 16.3206 4.79687 18.5462 6.43782 20.1872C8.07876 21.8281 10.3044 22.75 12.625 22.75C14.9456 22.75 17.1712 21.8281 18.8122 20.1872C20.4531 18.5462 21.375 16.3206 21.375 14C21.375 11.6794 20.4531 9.45376 18.8122 7.81282C17.1712 6.17187 14.9456 5.25 12.625 5.25ZM13.375 10C13.375 9.80109 13.296 9.61032 13.1553 9.46967C13.0147 9.32902 12.8239 9.25 12.625 9.25C12.4261 9.25 12.2353 9.32902 12.0947 9.46967C11.954 9.61032 11.875 9.80109 11.875 10V14C11.875 14.1989 11.954 14.3897 12.0947 14.5303C12.2353 14.671 12.4261 14.75 12.625 14.75C12.8239 14.75 13.0147 14.671 13.1553 14.5303C13.296 14.3897 13.375 14.1989 13.375 14V10ZM8.875 2C8.875 1.80109 8.95402 1.61032 9.09467 1.46967C9.23532 1.32902 9.42609 1.25 9.625 1.25H15.625C15.8239 1.25 16.0147 1.32902 16.1553 1.46967C16.296 1.61032 16.375 1.80109 16.375 2C16.375 2.19891 16.296 2.38968 16.1553 2.53033C16.0147 2.67098 15.8239 2.75 15.625 2.75H9.625C9.42609 2.75 9.23532 2.67098 9.09467 2.53033C8.95402 2.38968 8.875 2.19891 8.875 2Z" fill="white"/>
</svg>
